# xmcd
#
# Track frame offsets: 
#        150
#        15422
#        28322
#        39520
#        53817
#        64942
#        79717
#        89667
#        102362
#        116730
#        134245
#        142345
#        156667
#
# Disc length: 2226 seconds
#
# Revision: 3
# Processed by: cddbd v1.5.2PL0 Copyright (c) Steve Scherf et al.
# Submitted via: ExactAudioCopy v1.0b3
#
DISCID=c508b00d
DTITLE=Foley, Sue - Without A Warning
DYEAR=1993
DGENRE=Electric Blues
TTITLE0=Come Into My Arms
TTITLE1=Ruby Duby Du
TTITLE2=Open Up Your Eyes
TTITLE3=Give Me Time
TTITLE4=Hooker Thing
TTITLE5=Sad Sad City
TTITLE6=Truckin' Little Woman
TTITLE7=Sue's Boogaloo
TTITLE8=Cry For Me
TTITLE9=Live Together
TTITLE10=Without A Warning
TTITLE11=Put Your Money Where Your Mouth Is
TTITLE12=Annie's Driftin' Heart
EXTD=YEAR: 1993
EXTT0=
EXTT1=
EXTT2=
EXTT3=
EXTT4=
EXTT5=
EXTT6=
EXTT7=
EXTT8=
EXTT9=
EXTT10=
EXTT11=
EXTT12=
PLAYORDER=
